Coordinates
version=1
nRows=12
nColumns=34
inDegrees=yes

Units are S.I. units (second, meters, Newtons, ...)
If the header above contains a line with 'inDegrees', this indicates whether rotational values are in degrees (yes) or radians (no).

endheader
time	pelvis_tilt	pelvis_list	pelvis_rotation	pelvis_tx	pelvis_ty	pelvis_tz	hip_flexion_r	hip_adduction_r	hip_rotation_r	knee_angle_r	ankle_angle_r	subtalar_angle_r	mtp_angle_r	hip_flexion_l	hip_adduction_l	hip_rotation_l	knee_angle_l	ankle_angle_l	subtalar_angle_l	mtp_angle_l	lumbar_extension	lumbar_bending	lumbar_rotation	arm_flex_r	arm_add_r	arm_rot_r	elbow_flex_r	pro_sup_r	arm_flex_l	arm_add_l	arm_rot_l	elbow_flex_l	pro_sup_l
      2.86666670	    -22.48586446	     13.91969916	     -0.99006162	      2.76586061	      0.89890967	     -0.06802602	     -1.21747969	    -12.22122407	    -22.16961868	      2.37658850	     26.65297222	     12.69284299	      0.00000000	     16.27010427	      9.09048105	    -16.65224643	      4.34390629	     24.77423699	      8.84255069	      0.00000000	     18.26450910	    -17.11599644	    -22.28564903	     16.06598227	     -7.42198106	     35.68604033	     38.66682479	     85.82395397	    -43.40010501	     11.58292810	    -38.26880946	     53.64305802	    105.30739678
      2.88333330	    -22.23751608	     14.76148856	     -1.25229799	      2.77448807	      0.90023258	     -0.06725025	     -1.76843380	    -13.25121034	    -21.55583165	      2.66877844	     26.68322733	     11.89368276	      0.00000000	     16.61234149	     10.02248659	    -18.55579476	      2.43920351	     25.22560229	     11.42722365	      0.00000000	     18.14154449	    -18.09078530	    -21.95043476	     16.44202381	     -6.77467069	     35.70045203	     37.58378213	     86.01464801	    -43.30403646	     11.36956253	    -38.05508284	     53.02138978	    104.44801751
      2.90000000	    -21.87022632	     15.27522494	     -1.25922798	      2.78291873	      0.89807584	     -0.06836894	     -2.50579157	    -13.92538069	    -21.51216600	      2.87678070	     26.14937645	     11.11903608	      0.00000000	     16.39177187	     10.90073256	    -20.39741397	      0.34210888	     24.86303784	     13.47847156	      0.00000000	     17.96610631	    -18.70460135	    -21.71395743	     16.61160635	     -6.26354863	     35.50641861	     36.65579621	     86.16885654	    -42.95097062	     10.90482646	    -37.65999949	     52.34337695	    103.70087333
      2.91666670	    -21.96049747	     15.16216605	     -0.66447688	      2.78811514	      0.89556197	     -0.07070238	     -2.70621063	    -13.85132824	    -22.33815532	      2.84360448	     25.18716890	     10.55316508	      0.00000000	     17.07728159	     11.11616394	    -22.42104379	      0.00000000	     24.98483594	     15.43755542	      0.00000000	     18.03377282	    -18.67048517	    -21.93927226	     16.56784777	     -6.10990126	     35.04669059	     36.05023093	     86.25397075	    -42.39040989	     10.30937231	    -37.16405291	     51.60254066	    103.16929486
      2.93333330	    -21.76581120	     14.88208904	     -0.39944535	      2.79368518	      0.89456527	     -0.07242705	     -3.03630804	    -13.62374249	    -23.07371518	      2.78210361	     24.34782522	     10.24366701	      0.00000000	     17.16685305	     11.14694666	    -24.38766071	      0.00000000	     24.92645728	     17.18487786	      0.00000000	     17.81445029	    -18.40123268	    -21.76026323	     16.34574012	     -6.01747540	     34.39158719	     35.49459037	     86.39322736	    -41.58332943	      9.59933786	    -36.40576163	     50.64835882	    102.55173173
      2.95000000	    -21.82092023	     14.38003959	     -0.12570598	      2.80133439	      0.89442761	     -0.07409612	     -3.07630400	    -13.19630897	    -23.83557944	      2.78639958	     23.51556369	     10.10537004	      0.00000000	     17.07978429	     11.03075102	    -25.07337556	      0.00000000	     24.07206149	     17.43054933	      0.00000000	     17.76961807	    -17.91736912	    -21.91044592	     16.14788502	     -6.18030240	     34.28038753	     35.43622887	     86.43385890	    -41.21473805	      9.30921564	    -36.27327861	     50.64957807	    102.43260344
      2.96666670	    -21.88134515	     13.77247285	     -0.04816247	      2.80881348	      0.89404127	     -0.07532539	     -3.13823253	    -12.64255121	    -24.43935635	      2.75513237	     22.25874980	     10.08467670	      0.00000000	     16.63461162	     10.78861871	    -25.74343800	      0.00000000	     23.34503348	     18.21884366	      0.00000000	     17.72286181	    -17.36707392	    -21.94508470	     15.71476247	     -6.36386307	     34.06033627	     35.64652010	     86.52919275	    -40.88632566	      8.93675109	    -35.89350818	     50.47581718	    102.20239990
      2.98333330	    -22.00006830	     13.16031669	     -0.40997333	      2.81042247	      0.89131075	     -0.07652185	     -2.90649593	    -12.21486620	    -24.20961555	      3.15291851	     21.97414485	     10.26591853	      0.00000000	     16.13465756	     10.45905772	    -25.90271905	      0.00000000	     22.52439317	     18.42053994	      0.00000000	     17.75922061	    -16.58089534	    -22.04304994	     15.78561016	     -6.43616963	     34.00561537	     35.82563033	     86.57420948	    -40.56934516	      8.77128788	    -35.69482843	     50.73572931	    102.12104792
      3.00000000	    -22.16730652	     12.81537175	     -0.91436408	      2.82135771	      0.88736586	     -0.07832232	     -2.89483014	    -12.19890703	    -24.49157948	      3.81366573	     20.62800541	     10.14992129	      0.00000000	     15.61302843	     10.35347068	    -26.25220884	      0.00000000	     21.30161982	     18.44641591	      0.00000000	     17.95710564	    -16.03534656	    -22.07616646	     15.62961149	     -6.44010553	     34.05673678	     36.10830260	     86.65343146	    -40.52646789	      8.60382468	    -35.42951188	     51.17012177	    102.02163237
      3.01666670	    -22.33630767	     12.66618316	     -1.61369477	      2.83748652	      0.88682699	     -0.07940742	     -2.98308071	    -12.27645197	    -23.64359596	      4.38470215	     18.64923158	      8.10675903	      0.00000000	     14.95807516	     10.31886460	    -26.10448441	      0.00000000	     20.24614327	     17.66607489	      0.00000000	     18.23657037	    -15.85819517	    -21.59730903	     14.81980354	     -6.95272003	     34.45375249	     37.36318373	     87.07435508	    -41.31431453	      8.36529969	    -34.24716324	     53.26709186	    101.49405650
      3.03333330	    -22.58858490	     12.81579280	     -2.49913879	      2.85297050	      0.89060711	     -0.07943287	     -3.23301259	    -12.69425253	    -23.67511064	      4.65810879	     17.36520715	      8.35924894	      0.00000000	     14.34258231	     10.43025535	    -26.56850145	      0.00000000	     18.97017144	     17.25051014	      0.00000000	     19.04943889	    -15.87450653	    -21.44561615	     14.16999659	     -6.93137721	     34.58715999	     37.39633226	     87.13794329	    -41.94691099	      8.57047478	    -34.21300690	     53.42583066	    101.38410039
      3.05000000	    -22.85093642	     13.02545059	     -3.34908208	      2.86369614	      0.88876100	     -0.08186258	     -3.37418347	    -13.21506406	    -22.94163915	      5.12171706	     15.04573693	      6.37790327	      0.00000000	     13.79802394	     10.59668442	    -25.82199232	      0.00000000	     17.68895800	     15.20166768	      0.00000000	     20.00671166	    -16.02718977	    -20.59372687	     13.13401656	     -7.30335812	     35.07056418	     36.98708887	     87.41934518	    -42.82733015	      8.71181140	    -34.35511091	     55.70036778	    100.82767369
